<svg width="105" height="53" viewBox="0 0 105 53" fill="none" xmlns="http://www.w3.org/2000/svg">
<path d="M7.01 0V29.69H29.66V35.84H0V0H7.01Z" fill="#010202"/>
<path d="M37.76 0H44.76V35.84H37.76V0Z" fill="#010202"/>
<path d="M80.8999 32.19H77.5799L97.1699 0H104.17V35.84H97.1699V9.81L98.8599 10.31L83.2099 35.84H75.3599L59.7199 10.42L61.4099 9.92V35.85H54.4099V0H61.4099L80.8999 32.19Z" fill="#010202"/>
<path d="M0.0200195 49.6298L3.06002 41.0098H4.09002L7.15002 49.6298H6.09002L3.42002 41.8298H3.72002L1.05002 49.6298H0.0200195ZM1.65002 47.3798V46.3798H5.49002V47.3798H1.65002Z" fill="#010202"/>
<path d="M9.72998 49.6298V41.0098H13.26C13.82 41.0098 14.29 41.0998 14.69 41.2798C15.08 41.4598 15.39 41.7298 15.6 42.0998C15.81 42.4598 15.91 42.9198 15.91 43.4698C15.91 43.8398 15.85 44.1598 15.74 44.4298C15.63 44.6898 15.48 44.9198 15.28 45.0998C15.08 45.2798 14.85 45.4198 14.58 45.5198C14.31 45.6198 14.02 45.6798 13.71 45.7098L13.67 45.6398C14.1 45.6598 14.48 45.7198 14.79 45.8098C15.1 45.9098 15.34 46.0798 15.52 46.3398C15.69 46.5998 15.78 46.9798 15.78 47.4898V49.6398H14.8V47.4898C14.8 47.1398 14.74 46.8598 14.63 46.6598C14.52 46.4598 14.33 46.3198 14.08 46.2398C13.82 46.1598 13.47 46.1098 13.02 46.1098H10.72V49.6398H9.72998V49.6298ZM10.72 45.1098H13.27C13.83 45.1098 14.24 44.9598 14.52 44.6498C14.8 44.3498 14.93 43.9498 14.93 43.4598C14.93 42.9898 14.79 42.6298 14.52 42.3798C14.25 42.1298 13.83 41.9998 13.27 41.9998H10.72V45.1098Z" fill="#010202"/>
<path d="M22.5501 49.7699C21.8201 49.7699 21.1601 49.5899 20.5601 49.2199C19.9601 48.8499 19.4901 48.3399 19.1401 47.6799C18.7901 47.0199 18.6101 46.2299 18.6101 45.3299C18.6101 44.4299 18.7901 43.6399 19.1401 42.9799C19.4901 42.3099 19.9701 41.7999 20.5601 41.4399C21.1501 41.0799 21.8201 40.8999 22.5501 40.8999C23.2801 40.8999 23.9401 41.0799 24.5401 41.4399C25.1401 41.7999 25.6101 42.3199 25.9601 42.9799C26.3101 43.6499 26.4901 44.4299 26.4901 45.3299C26.4901 46.2299 26.3101 47.0099 25.9601 47.6799C25.6101 48.3399 25.1301 48.8599 24.5401 49.2199C23.9401 49.5799 23.2801 49.7699 22.5501 49.7699ZM22.5501 48.7699C23.1101 48.7699 23.6101 48.6399 24.0501 48.3799C24.4901 48.1199 24.8501 47.7299 25.1101 47.2199C25.3701 46.7099 25.5001 46.0799 25.5001 45.3199C25.5001 44.5699 25.3701 43.9399 25.1101 43.4299C24.8501 42.9199 24.4901 42.5399 24.0501 42.2699C23.6101 42.0099 23.1101 41.8699 22.5501 41.8699C22.0001 41.8699 21.5001 41.9999 21.0501 42.2699C20.6001 42.5399 20.2501 42.9199 19.9901 43.4299C19.7301 43.9399 19.6001 44.5699 19.6001 45.3199C19.6001 46.0699 19.7301 46.6999 19.9901 47.2199C20.2501 47.7299 20.6101 48.1199 21.0501 48.3799C21.4901 48.6399 22.0001 48.7699 22.5501 48.7699ZM22.0501 49.0599H23.0301V52.2799H22.0501V49.0599Z" fill="#010202"/>
<path d="M35.0299 46.32V41.02H36.0099V46.32C36.0099 46.81 35.9599 47.24 35.8499 47.61C35.7399 47.99 35.5899 48.31 35.3999 48.58C35.2099 48.85 34.9799 49.08 34.6999 49.25C34.4299 49.42 34.1299 49.55 33.7999 49.63C33.4699 49.71 33.1099 49.76 32.7299 49.76C32.3399 49.76 31.9799 49.72 31.6499 49.63C31.3099 49.55 31.0099 49.42 30.7299 49.25C30.4599 49.08 30.2199 48.85 30.0299 48.58C29.8399 48.31 29.6899 47.98 29.5799 47.61C29.4699 47.23 29.4199 46.8 29.4199 46.32V41.02H30.3999V46.32C30.3999 46.98 30.5099 47.49 30.7199 47.85C30.9299 48.2 31.2199 48.45 31.5699 48.58C31.9199 48.71 32.3099 48.78 32.7299 48.78C33.1399 48.78 33.5199 48.71 33.8599 48.58C34.1999 48.45 34.4799 48.2 34.6999 47.85C34.9199 47.49 35.0299 46.98 35.0299 46.32Z" fill="#010202"/>
<path d="M39.5701 41.02H40.5601V49.64H39.5701V41.02Z" fill="#010202"/>
<path d="M43.3101 41.02H49.7101V42.02H43.3101V41.02ZM46.0201 41.9H47.0001V49.63H46.0201V41.9Z" fill="#010202"/>
<path d="M53.2 45.8398V48.6398H57.89V49.6298H52.22V41.0098H57.88V42.0098H53.2V44.8498H57.03V45.8498H53.2V45.8398Z" fill="#010202"/>
<path d="M67.8401 46.7599C67.7601 47.3799 67.5601 47.9099 67.2501 48.3599C66.9401 48.8099 66.5401 49.1599 66.0601 49.3999C65.5801 49.6399 65.0401 49.7699 64.4501 49.7699C63.9001 49.7699 63.3901 49.6699 62.9201 49.4599C62.4501 49.2499 62.0401 48.9499 61.7001 48.5599C61.3501 48.1699 61.0801 47.6999 60.8801 47.1499C60.6801 46.5999 60.5801 45.9899 60.5801 45.3199C60.5801 44.6399 60.6801 44.0299 60.8801 43.4799C61.0801 42.9399 61.3501 42.4699 61.7001 42.0799C62.0501 41.6899 62.4601 41.3899 62.9201 41.1899C63.3901 40.9799 63.9001 40.8799 64.4501 40.8799C65.0501 40.8799 65.5901 40.9999 66.0701 41.2399C66.5501 41.4799 66.9501 41.8299 67.2601 42.2899C67.5701 42.7499 67.7701 43.2899 67.8501 43.9099H66.9401C66.8301 43.4699 66.6501 43.0999 66.4001 42.7999C66.1601 42.4999 65.8701 42.2699 65.5301 42.1099C65.1901 41.9499 64.8301 41.8699 64.4501 41.8699C63.9501 41.8699 63.4801 41.9999 63.0401 42.2699C62.6001 42.5399 62.2501 42.9199 61.9801 43.4399C61.7101 43.9499 61.5701 44.5799 61.5701 45.3199C61.5701 46.0599 61.7101 46.6899 61.9801 47.1999C62.2501 47.7099 62.6101 48.0999 63.0401 48.3699C63.4801 48.6399 63.9501 48.7699 64.4501 48.7699C64.8401 48.7699 65.2001 48.6899 65.5301 48.5399C65.8601 48.3899 66.1501 48.1599 66.3901 47.8599C66.6301 47.5599 66.8101 47.1899 66.9301 46.7599H67.8401Z" fill="#010202"/>
<path d="M69.99 41.02H76.39V42.02H69.99V41.02ZM72.7 41.9H73.68V49.63H72.7V41.9Z" fill="#010202"/>
<path d="M84.5001 46.32V41.02H85.4801V46.32C85.4801 46.81 85.4301 47.24 85.3201 47.61C85.2101 47.99 85.0601 48.31 84.8701 48.58C84.6801 48.85 84.4501 49.08 84.1701 49.25C83.9001 49.42 83.6001 49.55 83.2701 49.63C82.9401 49.71 82.5801 49.76 82.2001 49.76C81.8101 49.76 81.4501 49.72 81.1201 49.63C80.7801 49.55 80.4801 49.42 80.2001 49.25C79.9301 49.08 79.6901 48.85 79.5001 48.58C79.3101 48.31 79.1601 47.98 79.0501 47.61C78.9401 47.23 78.8901 46.8 78.8901 46.32V41.02H79.8701V46.32C79.8701 46.98 79.9801 47.49 80.1901 47.85C80.4001 48.2 80.6901 48.45 81.0401 48.58C81.3901 48.71 81.7801 48.78 82.2001 48.78C82.6101 48.78 82.9901 48.71 83.3301 48.58C83.6701 48.45 83.9501 48.2 84.1701 47.85C84.3901 47.49 84.5001 46.98 84.5001 46.32Z" fill="#010202"/>
<path d="M88.8 49.6298V41.0098H92.33C92.89 41.0098 93.36 41.0998 93.76 41.2798C94.15 41.4598 94.4601 41.7298 94.6701 42.0998C94.8801 42.4598 94.98 42.9198 94.98 43.4698C94.98 43.8398 94.9201 44.1598 94.8101 44.4298C94.7001 44.6898 94.5501 44.9198 94.3501 45.0998C94.1501 45.2798 93.92 45.4198 93.65 45.5198C93.38 45.6198 93.0901 45.6798 92.7801 45.7098L92.7401 45.6398C93.1701 45.6598 93.55 45.7198 93.86 45.8098C94.17 45.9098 94.41 46.0798 94.59 46.3398C94.76 46.5998 94.8501 46.9798 94.8501 47.4898V49.6398H93.87V47.4898C93.87 47.1398 93.8101 46.8598 93.7001 46.6598C93.5901 46.4598 93.4 46.3198 93.15 46.2398C92.89 46.1598 92.54 46.1098 92.09 46.1098H89.79V49.6398H88.8V49.6298ZM89.7801 45.1098H92.33C92.89 45.1098 93.3 44.9598 93.58 44.6498C93.86 44.3498 93.9901 43.9498 93.9901 43.4598C93.9901 42.9898 93.85 42.6298 93.58 42.3798C93.31 42.1298 92.89 41.9998 92.33 41.9998H89.7801V45.1098Z" fill="#010202"/>
<path d="M97.3 49.6298L100.34 41.0098H101.37L104.43 49.6298H103.37L100.7 41.8298H101L98.33 49.6298H97.3ZM98.93 47.3798V46.3798H102.77V47.3798H98.93Z" fill="#010202"/>
</svg>
