<?xml version="1.0" encoding="utf-8"?>
<!-- Generator: Adobe Illustrator 23.1.1, SVG Export Plug-In . SVG Version: 6.00 Build 0)  -->
<svg version="1.1" id="Capa_1" xmlns="http://www.w3.org/2000/svg" xmlns:xlink="http://www.w3.org/1999/xlink" x="0px" y="0px"
	 viewBox="0 0 125.57 75.17" style="enable-background:new 0 0 125.57 75.17;" xml:space="preserve">
<style type="text/css">
	.st0{fill:#FFFFFF;stroke:#E8E8E8;stroke-miterlimit:10;}
	.st1{fill:#9C9B9B;}
	.st2{fill:#292C2D;}
	.st3{fill:#010202;}
	.st4{fill:none;stroke:#000000;stroke-miterlimit:10;}
	.st5{fill:none;stroke:#FFFFFF;stroke-miterlimit:10;}
	.st6{fill:none;stroke:#000000;stroke-width:0.5;stroke-miterlimit:10;}
	.st7{fill:#E41E1C;}
	.st8{stroke:#000000;stroke-width:0.5;stroke-miterlimit:10;}
	.st9{fill:#FFFFFF;}
	.st10{fill:none;stroke:#000000;stroke-width:0.25;stroke-miterlimit:10;}
	.st11{fill:#9D9D9C;}
	.st12{fill:#020203;}
	.st13{fill:#BABABA;}
	.st14{fill:#010203;}
	.st15{fill:none;stroke:#010202;stroke-width:0.05;stroke-miterlimit:10;}
	.st16{fill:#010202;stroke:#010202;stroke-miterlimit:10;}
	.st17{fill:#97989A;}
	.st18{fill:#FFFFFF;fill-opacity:0;}
	.st19{fill:none;stroke:#FFFFFF;stroke-width:4;stroke-miterlimit:10;}
	.st20{fill:#FFFFFF;stroke:#FFFFFF;stroke-width:3;stroke-miterlimit:10;}
	.st21{fill:#010202;stroke:#FFFFFF;stroke-width:3;stroke-miterlimit:10;}
	.st22{fill:none;stroke:#010202;stroke-miterlimit:10;}
	.st23{fill:none;stroke:#010202;stroke-width:0.25;stroke-miterlimit:10;}
	.st24{fill:none;stroke:#010202;stroke-width:0.5;stroke-miterlimit:10;}
	.st25{fill:#FFFFFF;stroke:#000000;stroke-miterlimit:10;}
	.st26{opacity:0.3;fill:#9AD4E8;}
	.st27{fill:#010202;stroke:#FFFFFF;stroke-width:2;stroke-miterlimit:10;}
</style>
<g>
	<g>
		<path class="st9" d="M17.01,10.14v29.69h22.65v6.15H10V10.14H17.01z"/>
		<path class="st9" d="M47.76,10.14h7v35.84h-7V10.14z"/>
		<path class="st9" d="M90.9,42.32h-3.32l19.59-32.19h7v35.84h-7V19.94l1.69,0.5L93.21,45.98h-7.85L69.72,20.55l1.69-0.5v25.93h-7
			V10.14h7L90.9,42.32z"/>
	</g>
</g>
<g>
	<g>
		<path class="st9" d="M10.02,59.77l3.04-8.62h1.03l3.06,8.62H16.1l-2.67-7.8h0.3l-2.67,7.8H10.02z M11.65,57.52v-1h3.84v1H11.65z"
			/>
		<path class="st9" d="M19.73,59.77v-8.62h3.53c0.56,0,1.03,0.09,1.43,0.27c0.39,0.18,0.7,0.45,0.91,0.82
			c0.21,0.36,0.31,0.82,0.31,1.37c0,0.37-0.06,0.69-0.17,0.96c-0.11,0.26-0.26,0.49-0.46,0.67c-0.2,0.18-0.43,0.32-0.7,0.42
			c-0.27,0.1-0.56,0.16-0.87,0.19l-0.04-0.07c0.43,0.02,0.81,0.08,1.12,0.17c0.31,0.1,0.55,0.27,0.73,0.53
			c0.17,0.26,0.26,0.64,0.26,1.15v2.15H24.8v-2.15c0-0.35-0.06-0.63-0.17-0.83c-0.11-0.2-0.3-0.34-0.55-0.42
			c-0.26-0.08-0.61-0.13-1.06-0.13h-2.3v3.53H19.73z M20.72,55.25h2.55c0.56,0,0.97-0.15,1.25-0.46c0.28-0.3,0.41-0.7,0.41-1.19
			c0-0.47-0.14-0.83-0.41-1.08c-0.27-0.25-0.69-0.38-1.25-0.38h-2.55V55.25z"/>
		<path class="st9" d="M32.54,59.9c-0.73,0-1.39-0.18-1.99-0.55c-0.6-0.37-1.07-0.88-1.42-1.54c-0.35-0.66-0.53-1.45-0.53-2.35
			s0.18-1.69,0.53-2.35c0.35-0.67,0.83-1.18,1.42-1.54c0.59-0.36,1.26-0.54,1.99-0.54c0.73,0,1.39,0.18,1.99,0.54
			c0.6,0.36,1.07,0.88,1.42,1.54c0.35,0.67,0.53,1.45,0.53,2.35s-0.18,1.68-0.53,2.35c-0.35,0.66-0.83,1.18-1.42,1.54
			C33.94,59.72,33.28,59.9,32.54,59.9z M32.54,58.91c0.56,0,1.06-0.13,1.5-0.39c0.44-0.26,0.8-0.65,1.06-1.16
			c0.26-0.51,0.39-1.14,0.39-1.9c0-0.75-0.13-1.38-0.39-1.89c-0.26-0.51-0.62-0.89-1.06-1.16c-0.44-0.26-0.94-0.4-1.5-0.4
			c-0.55,0-1.05,0.13-1.5,0.4c-0.45,0.27-0.8,0.65-1.06,1.16c-0.26,0.51-0.39,1.14-0.39,1.89c0,0.75,0.13,1.38,0.39,1.9
			c0.26,0.51,0.62,0.9,1.06,1.16S32,58.91,32.54,58.91z M32.05,59.2h0.98v3.22h-0.98V59.2z"/>
		<path class="st9" d="M45.03,56.46v-5.3h0.98v5.3c0,0.49-0.05,0.92-0.16,1.29c-0.11,0.38-0.26,0.7-0.45,0.97
			c-0.19,0.27-0.42,0.5-0.7,0.67c-0.27,0.17-0.57,0.3-0.9,0.38c-0.33,0.08-0.69,0.13-1.07,0.13c-0.39,0-0.75-0.04-1.08-0.13
			c-0.34-0.08-0.64-0.21-0.92-0.38c-0.27-0.17-0.51-0.4-0.7-0.67c-0.19-0.27-0.34-0.6-0.45-0.97c-0.11-0.38-0.16-0.81-0.16-1.29
			v-5.3h0.98v5.3c0,0.66,0.11,1.17,0.32,1.53c0.21,0.35,0.5,0.6,0.85,0.73c0.35,0.13,0.74,0.2,1.16,0.2c0.41,0,0.79-0.07,1.13-0.2
			s0.62-0.38,0.84-0.73C44.92,57.63,45.03,57.12,45.03,56.46z"/>
		<path class="st9" d="M49.57,51.15h0.99v8.62h-0.99V51.15z"/>
		<path class="st9" d="M53.31,51.15h6.4v1h-6.4V51.15z M56.02,52.04H57v7.73h-0.98V52.04z"/>
		<path class="st9" d="M63.2,55.98v2.8h4.69v0.99h-5.67v-8.62h5.66v1H63.2v2.84h3.83v1H63.2z"/>
		<path class="st9" d="M77.84,56.89c-0.08,0.62-0.28,1.15-0.59,1.6c-0.31,0.45-0.71,0.8-1.19,1.04c-0.48,0.24-1.02,0.37-1.61,0.37
			c-0.55,0-1.06-0.1-1.53-0.31c-0.47-0.21-0.88-0.51-1.22-0.9c-0.35-0.39-0.62-0.86-0.82-1.41c-0.2-0.55-0.3-1.16-0.3-1.83
			c0-0.68,0.1-1.29,0.3-1.84c0.2-0.54,0.47-1.01,0.82-1.4c0.35-0.39,0.76-0.69,1.22-0.89c0.47-0.21,0.98-0.31,1.53-0.31
			c0.6,0,1.14,0.12,1.62,0.36c0.48,0.24,0.88,0.59,1.19,1.05c0.31,0.46,0.51,1,0.59,1.62h-0.91c-0.11-0.44-0.29-0.81-0.54-1.11
			c-0.24-0.3-0.53-0.53-0.87-0.69c-0.34-0.16-0.7-0.24-1.08-0.24c-0.5,0-0.97,0.13-1.41,0.4c-0.44,0.27-0.79,0.65-1.06,1.17
			c-0.27,0.51-0.41,1.14-0.41,1.88c0,0.74,0.14,1.37,0.41,1.88c0.27,0.51,0.63,0.9,1.06,1.17c0.44,0.27,0.91,0.4,1.41,0.4
			c0.39,0,0.75-0.08,1.08-0.23c0.33-0.15,0.62-0.38,0.86-0.68c0.24-0.3,0.42-0.67,0.54-1.1H77.84z"/>
		<path class="st9" d="M79.99,51.15h6.4v1h-6.4V51.15z M82.7,52.04h0.98v7.73H82.7V52.04z"/>
		<path class="st9" d="M94.5,56.46v-5.3h0.98v5.3c0,0.49-0.05,0.92-0.16,1.29c-0.11,0.38-0.26,0.7-0.45,0.97
			c-0.19,0.27-0.42,0.5-0.7,0.67c-0.27,0.17-0.57,0.3-0.9,0.38c-0.33,0.08-0.69,0.13-1.07,0.13c-0.39,0-0.75-0.04-1.08-0.13
			c-0.34-0.08-0.64-0.21-0.92-0.38c-0.27-0.17-0.51-0.4-0.7-0.67c-0.19-0.27-0.34-0.6-0.45-0.97c-0.11-0.38-0.16-0.81-0.16-1.29
			v-5.3h0.98v5.3c0,0.66,0.11,1.17,0.32,1.53c0.21,0.35,0.5,0.6,0.85,0.73c0.35,0.13,0.74,0.2,1.16,0.2c0.41,0,0.79-0.07,1.13-0.2
			s0.62-0.38,0.84-0.73C94.39,57.63,94.5,57.12,94.5,56.46z"/>
		<path class="st9" d="M98.8,59.77v-8.62h3.53c0.56,0,1.03,0.09,1.43,0.27c0.39,0.18,0.7,0.45,0.91,0.82
			c0.21,0.36,0.31,0.82,0.31,1.37c0,0.37-0.06,0.69-0.17,0.96c-0.11,0.26-0.26,0.49-0.46,0.67c-0.2,0.18-0.43,0.32-0.7,0.42
			c-0.27,0.1-0.56,0.16-0.87,0.19l-0.04-0.07c0.43,0.02,0.81,0.08,1.12,0.17c0.31,0.1,0.55,0.27,0.73,0.53
			c0.17,0.26,0.26,0.64,0.26,1.15v2.15h-0.98v-2.15c0-0.35-0.06-0.63-0.17-0.83c-0.11-0.2-0.3-0.34-0.55-0.42
			c-0.26-0.08-0.61-0.13-1.06-0.13h-2.3v3.53H98.8z M99.78,55.25h2.55c0.56,0,0.97-0.15,1.25-0.46c0.28-0.3,0.41-0.7,0.41-1.19
			c0-0.47-0.14-0.83-0.41-1.08c-0.27-0.25-0.69-0.38-1.25-0.38h-2.55V55.25z"/>
		<path class="st9" d="M107.3,59.77l3.04-8.62h1.03l3.06,8.62h-1.06l-2.67-7.8h0.3l-2.67,7.8H107.3z M108.93,57.52v-1h3.84v1H108.93
			z"/>
	</g>
</g>
</svg>
